<?xml version="1.0" encoding="utf-8"?>
<!-- Svg Vector Icons : http://www.onlinewebfonts.com/icon -->
<!DOCTYPE svg PUBLIC "-//W3C//DTD SVG 1.1//EN" "http://www.w3.org/Graphics/SVG/1.1/DTD/svg11.dtd">
<svg version="1.1" xmlns="http://www.w3.org/2000/svg" xmlns:xlink="http://www.w3.org/1999/xlink" x="0px" y="0px" viewBox="0 0 256 256" enable-background="new 0 0 256 256" xml:space="preserve">
<metadata> Svg Vector Icons : http://www.onlinewebfonts.com/icon </metadata>
<g><g><g><path fill="#bdae93" d="M85.1,117.3h85.8V85.1c0-11.8-4.2-22-12.6-30.3c-8.4-8.4-18.5-12.6-30.3-12.6c-11.8,0-22,4.2-30.3,12.6c-8.4,8.4-12.6,18.5-12.6,30.3V117.3L85.1,117.3z M224.5,133.4v96.5c0,4.5-1.6,8.3-4.7,11.4c-3.1,3.1-6.9,4.7-11.4,4.7H47.5c-4.5,0-8.3-1.6-11.4-4.7c-3.1-3.1-4.7-6.9-4.7-11.4v-96.5c0-4.5,1.6-8.3,4.7-11.4c3.1-3.1,6.9-4.7,11.4-4.7h5.4V85.1c0-20.6,7.4-38.2,22.1-53C89.8,17.4,107.4,10,128,10s38.2,7.4,53,22.1c14.8,14.8,22.1,32.4,22.1,53v32.2h5.4c4.5,0,8.3,1.6,11.4,4.7C223,125.1,224.5,128.9,224.5,133.4L224.5,133.4z"/></g></g></g>
</svg>