<?xml version="1.0" encoding="utf-8"?>
<!-- Svg Vector Icons : http://www.onlinewebfonts.com/icon -->
<!DOCTYPE svg PUBLIC "-//W3C//DTD SVG 1.1//EN" "http://www.w3.org/Graphics/SVG/1.1/DTD/svg11.dtd">
<svg version="1.1" xmlns="http://www.w3.org/2000/svg" xmlns:xlink="http://www.w3.org/1999/xlink" x="0px" y="0px" viewBox="0 0 256 256" enable-background="new 0 0 256 256" xml:space="preserve">
<metadata> Svg Vector Icons : http://www.onlinewebfonts.com/icon </metadata>
<g><g><path fill="#bdae93" d="M157.5,246H19.8c-5.9,0-9.8-3.9-9.8-9.8V19.8c0-5.9,3.9-9.8,9.8-9.8h137.7c5.9,0,9.8,3.9,9.8,9.8v68.8c0,5.9-3.9,9.8-9.8,9.8s-9.8-3.9-9.8-9.8v-59h-118v196.7h118v-59c0-5.9,3.9-9.8,9.8-9.8s9.8,3.9,9.8,9.8v68.8C167.3,242.1,163.4,246,157.5,246z"/><path fill="#bdae93" d="M236.2,137.8H88.7c-5.9,0-9.8-3.9-9.8-9.8c0-5.9,3.9-9.8,9.8-9.8h147.5c5.9,0,9.8,3.9,9.8,9.8C246,133.9,242.1,137.8,236.2,137.8z"/><path fill="#bdae93" d="M236.2,137.8c-3,0-4.9-1-6.9-3L190,95.6c-3.9-3.9-3.9-9.8,0-13.8c3.9-3.9,9.8-3.9,13.8,0l39.3,39.3c3.9,3.9,3.9,9.8,0,13.8C241.1,136.9,239.1,137.8,236.2,137.8z"/><path fill="#bdae93" d="M196.8,177.2c-3,0-4.9-1-6.9-3c-3.9-3.9-3.9-9.8,0-13.8l39.3-39.3c3.9-3.9,9.8-3.9,13.8,0c3.9,3.9,3.9,9.8,0,13.8l-39.3,39.3C201.8,176.2,199.8,177.2,196.8,177.2z"/></g></g>
</svg>