<?xml version="1.0" encoding="utf-8"?>
<!-- Svg Vector Icons : http://www.onlinewebfonts.com/icon -->
<!DOCTYPE svg PUBLIC "-//W3C//DTD SVG 1.1//EN" "http://www.w3.org/Graphics/SVG/1.1/DTD/svg11.dtd">
<svg version="1.1" xmlns="http://www.w3.org/2000/svg" xmlns:xlink="http://www.w3.org/1999/xlink" x="0px" y="0px" viewBox="0 0 256 256" enable-background="new 0 0 256 256" xml:space="preserve">
<metadata> Svg Vector Icons : http://www.onlinewebfonts.com/icon </metadata>
<g><g><path fill="#bdae93" d="M40,76.4c-16.8,32.5-17.9,73.3,0.6,105.4l-22.9-13.2L10,181.9c22.4,12.5,32.2,18.3,44.3,25.6c6.9-12.4,12.7-22.7,25.9-44.8L66.8,155L54,177.3C23.3,128.7,47.9,55.8,103.6,38c57.6-23.3,127.7,23.4,128.3,85.6c4.7,57-50.3,106.8-105.8,100.2l-7.1,12.3c66.9,13.1,134-48.6,126.4-116.4C242.7,48.7,161-2.3,96,26.2C70.9,35.1,51.7,53.7,40,76.4z"/></g></g>
</svg>