<?xml version="1.0" encoding="utf-8"?>
<!-- Svg Vector Icons : http://www.onlinewebfonts.com/icon -->
<!DOCTYPE svg PUBLIC "-//W3C//DTD SVG 1.1//EN" "http://www.w3.org/Graphics/SVG/1.1/DTD/svg11.dtd">
<svg version="1.1" xmlns="http://www.w3.org/2000/svg" xmlns:xlink="http://www.w3.org/1999/xlink" x="0px" y="0px" viewBox="0 0 256 256" enable-background="new 0 0 256 256" xml:space="preserve">
<metadata> Svg Vector Icons : http://www.onlinewebfonts.com/icon </metadata>
<g><g><path fill="#bdae93" d="M195.6,38.9c7.9,5.6,14.9,12,21.1,19.1c6.1,7.1,11.4,14.8,15.8,23.1c4.4,8.3,7.7,17,10,26.2c2.3,9.2,3.4,18.6,3.4,28.1c0,16.3-3.1,31.7-9.4,46c-6.3,14.3-14.7,26.8-25.3,37.4s-23.1,19.1-37.5,25.3c-14.3,6.3-29.7,9.4-46,9.4c-16.2,0-31.4-3.1-45.8-9.3c-14.3-6.3-26.8-14.7-37.6-25.3s-19.2-23.1-25.3-37.4c-6.1-14.3-9.2-29.7-9.2-46c0-9.3,1.1-18.5,3.3-27.4c2.2-9,5.3-17.5,9.4-25.6c4-8.1,9-15.7,15-22.7c6-7,12.7-13.4,20-19c3.9-2.8,8-3.9,12.5-3.2c4.5,0.7,8.1,2.9,10.9,6.6c2.8,3.7,3.9,7.8,3.2,12.4c-0.7,4.6-2.9,8.3-6.6,11.1c-11.1,8.1-19.6,18-25.4,29.8c-5.9,11.8-8.8,24.4-8.8,38c0,11.6,2.2,22.5,6.6,32.8c4.4,10.3,10.4,19.2,18.1,26.9c7.7,7.7,16.6,13.7,26.9,18.2c10.3,4.5,21.2,6.7,32.8,6.7s22.5-2.2,32.8-6.7c10.3-4.5,19.2-10.6,26.9-18.2s13.7-16.6,18.2-26.9c4.5-10.3,6.7-21.2,6.7-32.8c0-13.7-3.2-26.7-9.5-38.9c-6.3-12.2-15.2-22.3-26.6-30.2c-3.9-2.6-6.2-6.3-7-10.8c-0.8-4.6,0.1-8.8,2.8-12.7c2.6-3.7,6.3-5.9,10.8-6.7C187.5,35.3,191.7,36.2,195.6,38.9L195.6,38.9z M127.9,136.2c-4.6,0-8.5-1.6-11.7-4.9c-3.3-3.3-4.9-7.2-4.9-11.7V19.4c0-4.6,1.6-8.5,4.9-11.9c3.3-3.3,7.2-5,11.7-5c4.7,0,8.7,1.7,12,5c3.3,3.3,4.9,7.3,4.9,11.9v100.2c0,4.6-1.6,8.5-4.9,11.7C136.6,134.6,132.6,136.2,127.9,136.2L127.9,136.2z"/></g></g>
</svg>