<?xml version="1.0" encoding="utf-8"?>
<!-- Svg Vector Icons : http://www.onlinewebfonts.com/icon -->
<!DOCTYPE svg PUBLIC "-//W3C//DTD SVG 1.1//EN" "http://www.w3.org/Graphics/SVG/1.1/DTD/svg11.dtd">
<svg version="1.1" xmlns="http://www.w3.org/2000/svg" xmlns:xlink="http://www.w3.org/1999/xlink" x="0px" y="0px" viewBox="0 0 256 256" enable-background="new 0 0 256 256" xml:space="preserve">
<metadata> Svg Vector Icons : http://www.onlinewebfonts.com/icon </metadata>
<g><g><path fill="#bdae93" d="M128,246c-15.9,0-31.4-3.1-45.9-9.3c-14.1-5.9-26.7-14.4-37.5-25.3c-10.8-10.8-19.3-23.5-25.3-37.5c-6.2-14.6-9.3-30-9.3-45.9s3.1-31.4,9.3-45.9C25.2,68,33.7,55.4,44.6,44.6C55.4,33.7,68,25.2,82.1,19.3c14.6-6.2,30-9.3,45.9-9.3s31.4,3.1,45.9,9.3c14.1,5.9,26.7,14.4,37.5,25.3c10.8,10.8,19.3,23.5,25.3,37.5c6.2,14.6,9.3,30,9.3,45.9s-3.1,31.4-9.3,45.9c-5.9,14.1-14.4,26.7-25.3,37.5c-10.8,10.8-23.5,19.3-37.5,25.3C159.4,242.9,143.9,246,128,246z M128,26.8c-27,0-52.5,10.5-71.6,29.6C37.3,75.5,26.8,101,26.8,128c0,27,10.5,52.5,29.6,71.6c19.1,19.1,44.6,29.6,71.6,29.6c27,0,52.5-10.5,71.6-29.6c19.1-19.1,29.6-44.6,29.6-71.6c0-27-10.5-52.5-29.6-71.6C180.5,37.3,155,26.8,128,26.8z"/><path fill="#bdae93" d="M85.3,77.6h26v99.2h-26V77.6z"/><path fill="#bdae93" d="M142.8,77.6h26v99.2h-26V77.6z"/></g></g>
</svg>